<svg width="24" height="24" viewBox="0 0 24 24" fill="none" xmlns="http://www.w3.org/2000/svg">
<g id="Iconly/Light/2 User">
<g id="2 User">
<path id="Stroke 1" fill-rule="evenodd" clip-rule="evenodd" d="M9.5915 15.2068C13.2805 15.2068 16.4335 15.7658 16.4335 17.9988C16.4335 20.2318 13.3015 20.8068 9.5915 20.8068C5.9015 20.8068 2.7495 20.2528 2.7495 18.0188C2.7495 15.7848 5.8805 15.2068 9.5915 15.2068Z" stroke="currentColor" stroke-width="1.5" stroke-linecap="round" stroke-linejoin="round"/>
<path id="Stroke 3" fill-rule="evenodd" clip-rule="evenodd" d="M9.5915 12.0198C7.1695 12.0198 5.2055 10.0568 5.2055 7.63479C5.2055 5.21279 7.1695 3.24979 9.5915 3.24979C12.0125 3.24979 13.9765 5.21279 13.9765 7.63479C13.9855 10.0478 12.0355 12.0108 9.6225 12.0198H9.5915Z" stroke="currentColor" stroke-width="1.5" stroke-linecap="round" stroke-linejoin="round"/>
<path id="Stroke 5" d="M16.4831 10.8816C18.0841 10.6566 19.3171 9.28259 19.3201 7.61959C19.3201 5.98059 18.1251 4.62059 16.5581 4.36359" stroke="currentColor" stroke-width="1.5" stroke-linecap="round" stroke-linejoin="round"/>
<path id="Stroke 7" d="M18.5954 14.7322C20.1464 14.9632 21.2294 15.5072 21.2294 16.6272C21.2294 17.3982 20.7194 17.8982 19.8954 18.2112" stroke="currentColor" stroke-width="1.5" stroke-linecap="round" stroke-linejoin="round"/>
</g>
</g>
</svg>
